<?xml version="1.0" encoding="UTF-8"?>
<!DOCTYPE svg PUBLIC "-//W3C//DTD SVG 1.1//EN" "http://www.w3.org/Graphics/SVG/1.1/DTD/svg11.dtd">
<!-- Creator: CorelDRAW 2020 (64-Bit) -->
<svg xmlns="http://www.w3.org/2000/svg" xml:space="preserve" width="154.601mm" height="154.613mm" version="1.1" style="shape-rendering:geometricPrecision; text-rendering:geometricPrecision; image-rendering:optimizeQuality; fill-rule:evenodd; clip-rule:evenodd"
viewBox="0 0 4075.34 4075.65"
 xmlns:xlink="http://www.w3.org/1999/xlink"
 xmlns:xodm="http://www.corel.com/coreldraw/odm/2003">
 <defs>
  <style type="text/css">
   <![CDATA[
    .fil0 {fill:white}
   ]]>
  </style>
 </defs>
 <g id="Capa_x0020_1">
  <metadata id="CorelCorpID_0Corel-Layer"/>
  <g id="_1882736541088">
   <path class="fil0" d="M158.46 2038.55l2.16 -84.89c0.02,-12.92 2.08,-15.24 2.38,-26.64 1.47,-56.39 8.19,-106.53 15.68,-160.63 21.99,-158.74 82.95,-376.34 154.59,-519.43l48.37 -96.7c22.03,-44.45 48.9,-88.08 76.35,-128.98 43.14,-64.27 87.36,-127.13 137.23,-186.39l26.81 -31.21c5.76,-6.86 7.03,-9 13.53,-15.49 6.1,-6.09 7.44,-9.61 13.31,-15.7l87.09 -89.23c10.6,-10.62 19.75,-17.37 30.13,-27.9 52.43,-53.21 166.87,-138.97 229.77,-180.89 35.45,-23.63 71.49,-47.16 108.91,-67.4 50.61,-27.37 102.02,-55.17 154.73,-79.61 27.2,-12.61 53.53,-23.34 81.52,-34.53 13.34,-5.33 27.01,-10.83 41.89,-16.14l88.18 -30.11c107.03,-35.97 224.61,-61.46 337.1,-73.56 390.13,-41.97 738.09,18.46 1084.28,191.55 6.51,3.25 12.36,5.89 19.35,9.66 65.73,35.4 141.53,78.07 200.97,122.65l132.62 101.72c35.1,28.42 142.1,127.28 165.17,156.21 5.5,6.9 7.18,9.06 13.62,15.4 24.48,24.12 47,52.02 68.34,78.96l38.55 48.49c75.65,101.28 170.83,249 219.69,367.29 11.61,28.11 23.15,53.51 34.42,81.64 5.58,13.93 10.49,27.39 15.96,42.07 27.53,73.89 50.51,149.5 67.57,227.04 14.19,64.52 28.99,132.97 34.7,199.64 1.44,16.82 2.94,34.87 5.48,52.55l7.97 168.34c0,76.99 -5.24,152.27 -13.2,221.14 -20.62,178.3 -74.71,391.33 -152.72,552.54 -3.64,7.51 -5.12,12.65 -8.88,20.14 -3.6,7.19 -6.34,11.86 -9.5,19.51 -6.13,14.86 -12.19,25.96 -18.78,39.25l-41.67 76.62c-23.28,45.94 -61.86,101.81 -90.44,143.9l-48.99 67.07c-33.63,44.95 -71.57,86.13 -107.48,129.1 -32.15,38.47 -80.7,82.36 -117.03,117.32l-95.03 81.29c-11.03,9.32 -21.82,16.8 -32.81,25.21 -106.44,81.45 -207.01,141.48 -327.31,201.63l-81.15 37.14c-6.8,3.01 -13.26,5.16 -20.65,8.36 -7.37,3.18 -12.5,5.62 -20.4,8.61 -153.26,58.1 -302.9,97.87 -468.39,118.58 -17.66,2.21 -35.74,4.39 -52.9,5.13 -38.21,1.64 -72.5,6.69 -111.61,6.68 -22.46,-0.01 -37.49,2.31 -58.02,2.25l-84.91 -2.16c-12.44,-0.16 -14.21,-2.31 -26.62,-2.4 -86.26,-0.61 -175.68,-18.61 -259.59,-32.78 -56.09,-9.47 -134.12,-29.37 -187.15,-47.19 -15.28,-5.13 -30.46,-8.76 -45.63,-14.63l-86.39 -31.9c-14.62,-5.86 -27.16,-10.72 -41.48,-16.55 -145.61,-59.25 -282.7,-142.81 -408.08,-236.92 -27.64,-20.75 -56.57,-41.98 -81.54,-65.76l-178.54 -174.09c-6.55,-6.4 -7.81,-8.76 -13.51,-15.51 -2.6,-3.07 -3.96,-3.94 -6.55,-6.84 -3.73,-4.19 -3.35,-4.65 -6.84,-8.78l-66.29 -81.02c-53.06,-70.91 -95.15,-135.49 -141.05,-211.58 -7.57,-12.54 -12.91,-24.6 -20.58,-37.45 -14.9,-24.97 -26.93,-52.22 -39.98,-78.31 -20,-40 -38.23,-80.3 -54.11,-122.2 -11.05,-29.14 -22.33,-57.63 -31.93,-86.36 -40.99,-122.65 -70.85,-253.39 -86.89,-384.02 -4.18,-34.05 -9.01,-73.23 -9.26,-109.03l-2.28 -55.75c0.11,-19.55 -2.26,-35.86 -2.26,-58zm-158.46 66.54l0 -95.55c0,-80.46 6.71,-160.84 16.28,-233.69 9.32,-70.98 21.25,-142.59 38.61,-211.35 16.5,-65.36 35.58,-130.66 56.4,-193.57 10.11,-30.56 22.31,-61.39 34.09,-90.89 11.44,-28.62 24.1,-60.09 37.65,-87.34l20.06 -42.43c34.26,-68.51 69.44,-137.49 111.61,-200.84l49.99 -74.99c59.23,-85.59 125.57,-165.25 196.02,-241.42 24.88,-26.91 98.6,-99.92 127.63,-122.34l67.73 -57.25c69.78,-57.01 144.12,-106.44 219.67,-155.28 44.74,-28.92 92.32,-54.84 140.15,-78.57 77.87,-38.62 158,-75.56 240.75,-102.95 64.02,-21.19 126.7,-41.23 192.24,-57.73 242.81,-61.12 517.43,-75.05 767.63,-40.05 73.07,10.22 143.18,23.36 209.91,40.05 65.43,16.36 128.6,36.59 192.2,57.77 46.16,15.37 90.25,33.43 134.41,53.06 42.63,18.95 85.63,35.86 125.51,59.73l80.52 44.46 187.29 122.94c12.67,9.52 23.26,17.03 35.72,26.77l51.99 41.75c22.89,18.13 44.82,40.43 66.91,58.07l33.15 29.34c5.72,4.78 10.36,10.16 15.72,15.52l105.99 110.5c6.4,6.87 8.74,8.96 14.76,16.49 5.21,6.51 8.86,9.1 14.66,16.58 5.06,6.51 9.07,10.33 14.37,16.88 65.73,81.38 129.19,164.67 182.63,254.81 8.13,13.71 15.17,26.12 23.14,39.35 23.87,39.59 45.21,80.1 65.37,122.11l19.29 40.97c45.4,102.08 87.31,211.63 116.1,321.34 4.23,16.12 8.66,30.45 12.44,47.82 44.02,202.31 56.74,303.58 56.74,521.31 0,187.81 -45.67,461.16 -114.76,639.6l-52.93 134.54c-5.68,13.87 -13.94,29.38 -19.46,43.03 -11.4,28.14 -28.13,57.55 -41.97,85.24 -27.16,54.34 -58.25,108.16 -91.81,158.16l-37.44 56.3 -181.13 227.3c-5.78,5.75 -9.9,9.86 -15.68,15.57 -6.64,6.56 -8.56,10.4 -14.46,16.79l-146.46 136.98c-6.6,5.33 -10.32,9.23 -16.87,14.38 -46.61,36.64 -93.67,73.8 -141.91,108.05l-115.34 74.36c-93.71,55.9 -191.65,104.69 -294.03,145.64 -15.83,6.33 -28.84,11.62 -45.08,17.41l-93.21 31.77c-16.45,5.48 -30.89,10.04 -47.75,14.75 -102.24,28.53 -206.35,52.31 -312.94,64.24 -240.5,26.92 -491.5,19.99 -726.25,-39.27 -66.4,-16.77 -131.27,-35.68 -195.21,-56.98 -61.84,-20.6 -121.27,-45.58 -178.8,-71.16l-85.58 -41.63c-8.26,-4.11 -12.59,-6.35 -20.28,-10.96 -7.48,-4.48 -12.95,-6.46 -20.64,-10.6 -66.16,-35.62 -131.67,-76.48 -192.68,-119.78 -51.77,-36.74 -114.44,-80.84 -160.12,-123.32 -27.21,-25.31 -55.32,-48.35 -81.45,-74.78 -6.57,-6.64 -10.41,-8.56 -16.79,-14.46l-77.7 -80.76c-6.05,-7.83 -8.43,-9.58 -14.94,-16.31 -25.99,-26.91 -48.91,-57.05 -72.54,-85.93 -96.22,-117.61 -175.94,-247.67 -243.79,-383.36l-75.88 -176.31c-27.82,-70.53 -57.83,-163.24 -73.47,-238.99 -26.93,-130.47 -52.05,-249.52 -53.66,-386.01 -0.13,-11.31 -1.92,-14.73 -2.32,-24.88z"/>
   <path class="fil0" d="M1644.86 1915.8l-194.17 0 0 -53.56 185.34 -2.33c49.63,-0.33 38.25,55.89 8.83,55.89zm1084.67 361.56l-13.27 -20.21c-4.59,-7.67 -8.31,-14.7 -13.07,-22.64l-26.46 -44.96c-17.09,-31.36 -34.46,-60.14 -52.54,-90.29 -50.87,-84.84 -103.88,-185.12 -155.34,-270.94l-143.28 -249.53c-4.54,-8.55 -6.99,-15.32 -17.86,-17.85 -3.32,14.26 -38.05,72.73 -47.57,88.57l-50.63 87.75c-8.05,14.87 -16.68,28.65 -25.24,43.95l-176.4 307.92c-12.08,22.12 -96.81,164.84 -99.67,177.08 -10.49,-2.8 -109.6,-103.99 -116.65,-111 -5.54,-5.51 -33.15,-35.6 -35.12,-43 26.97,-6.28 82.74,-63.11 97.8,-85.21 79.87,-117.2 44.5,-281.69 -74.74,-355.2 -29.73,-18.33 -68.69,-37.2 -110.1,-37.2l-444.13 0 0 781.14 225.41 0 0 -283.44c22.5,15.06 223.42,222.3 258.34,257.22 10.04,10.04 17.97,21.07 31.96,26.07 24.04,8.58 84.46,-0 111.38,0.11 76.62,0.31 153.3,0.05 229.93,0.05 1.23,-14.76 85.45,-152.97 98.97,-177.78 5.11,-9.39 10.05,-16.43 14.86,-25.31l101.69 -177.29c4.42,-7.3 12.42,-18.53 14.37,-25.81 5.7,4.18 5.63,9.18 14.36,23.58l102.46 178.75c10.9,19.96 111.87,189.16 115.29,203.86l410.66 0 0 -392.8c11.08,7.42 466.14,464.72 519.46,518.35l36.27 32.92 0 -939.61 -225.41 0 0 392.8c-9.78,-6.55 -25.65,-24.54 -35.15,-34.04l-484.31 -484.31c-11.71,-11.71 -21.58,-25.15 -36.27,-32.92l0 801.23z"/>
   <path class="fil0" d="M446.37 2011.77c0,98.12 31.96,208.46 100.99,276.19l23.47 23.4c54.18,53.21 152.12,104.38 225.93,104.38l377.18 0 0 -497.7c0,-5.14 -1.55,-6.7 -6.7,-6.7l-330.31 0 0 227.65 109.36 0 0 51.33 -122.75 0c-73.62,0 -149.53,-78.91 -149.53,-147.3 0,-46.3 -2.92,-54.38 18.57,-97.49 8.99,-18.04 22.42,-33.22 36.68,-45.9 12.52,-11.13 33.76,-24.26 49.92,-30.43 24.11,-9.19 40.92,-9.2 73.37,-9.2l305.96 0.19c8.32,0.07 15.43,1.72 15.43,-6.89l0 -218.72 -374.95 0c-77.69,0 -149.93,41.08 -207.25,87.36 -5.36,4.33 -6.84,4.96 -12.06,10.26 -4.42,4.48 -6.34,6.81 -11.51,10.8 -15.4,11.88 -42.93,46.14 -54.54,61.51 -26.55,35.16 -46.32,82.88 -56.58,126.43 -4.89,20.77 -10.69,55.01 -10.69,80.82z"/>
   <path class="fil0" d="M1377.04 2661.24l0 517.79c0,5.14 1.55,6.7 6.7,6.7l448.6 0 0 -154 -301.3 0 0 -35.71 225.42 0 0 -154 -225.42 0 0 -33.48 301.3 0 0 -154 -448.6 0c-5.14,0 -6.7,1.55 -6.7,6.7z"/>
   <path class="fil0" d="M2042.13 1172.6c0,42.4 9.18,82.06 22.25,111.66 7.62,17.25 12.94,28.7 22.81,44.14l21.2 27.9c25.15,29.91 48.41,47.66 85.49,66.27 43.3,21.74 77.29,26.77 129.46,26.77 71.18,0 138.41,-36.2 184.73,-83.09 16.1,-16.3 44.24,-59.42 53.15,-80.76 13.01,-31.14 21.01,-69.81 21.01,-112.9l0 -303.53 -167.39 0 0 305.76c0,82 -74.14,127.14 -144.49,97.62 -6.26,-2.63 -12.09,-5.49 -17.5,-9.29l-14.11 -12.67c-10.33,-10.71 -15.76,-19.25 -21.67,-34.13 -4.9,-12.34 -7.57,-31.8 -7.57,-48.23l0 -299.07 -167.39 0 0 303.53z"/>
   <path class="fil0" d="M1868.05 2824.16c0,34.17 11.27,65.01 23.81,87.78 10.76,19.51 36.45,44.97 54.7,56.89 90.27,58.95 215.88,3.94 224.13,41.36 3.63,16.44 -8.95,21.65 -23.54,21.66l-261.38 -0.26c-9.48,-0.15 -17.72,-2.21 -17.72,6.82l0 147.3 296.84 0c57.53,0 106.49,-39.92 130.39,-74.94 65.19,-95.5 15.23,-232.94 -91.96,-260.33 -26.32,-6.72 -59.21,-9.56 -94.31,-8.51 -12.69,0.38 -86.97,11.57 -86.97,-13.32 0,-10.83 4.74,-13.83 8.93,-20.09l263.36 0c10.21,0.02 31.24,4.05 31.24,-6.7l0 -147.3 -303.53 0c-30.1,0 -65.57,16.43 -86.36,34.16l-30.05 30.21c-20.92,26.05 -37.58,70.09 -37.58,105.25z"/>
   <path class="fil0" d="M696.33 3185.72l154 0 0 -189.71 303.53 0 0 -147.3c0,-5.14 -1.55,-6.7 -6.7,-6.7l-296.84 0 0 -33.48 303.53 0 0 -154 -457.53 0 0 531.18z"/>
   <path class="fil0" d="M1506.49 1029.76c0,5.14 1.55,6.7 6.7,6.7l158.46 0 0 412.89 167.39 0 0 -412.89 165.16 0 0 -167.39 -497.7 0 0 160.69z"/>
   <path class="fil0" d="M2763.02 3185.72l178.55 0c2.9,-12.46 29.22,-55.5 37.25,-69.88l108.56 -188.28c4.75,-9.57 4.34,-10.8 12.65,-16.36 2.57,11.05 69.26,121.69 77.37,136.89l39.11 68.01c6.99,11.62 12.24,22.8 19.22,34.34 5.08,8.4 16.26,26.59 18.29,35.28l178.55 0 -83.02 -146.86c-7.4,-12.34 -13.04,-22.66 -20.62,-35.18 -7.67,-12.67 -14.29,-24.75 -21.23,-36.8l-199.45 -347.34c-4.29,-9.02 -4.04,-13.19 -14.91,-14.1 -1.05,12.63 -75.6,135.82 -81.63,146.02 -14.63,24.73 -27.2,48.19 -41.24,72.59 -6.66,11.57 -13.86,22.91 -20.66,35.13 -7.28,13.08 -13.59,24.19 -21.19,36.84l-42.08 71.74c-38.35,70.21 -87.71,150.28 -123.52,217.95z"/>
   <path class="fil0" d="M2359.05 2801.84c0,5.14 1.55,6.7 6.7,6.7l145.07 0 0 377.18 154 0 0 -377.18 151.77 0 0 -154 -457.53 0 0 147.3z"/>
   <polygon class="fil0" points="1189.57,3185.72 1343.57,3185.72 1343.57,2654.54 1189.57,2654.54 "/>
  </g>
 </g>
</svg>
